<svg xmlns="http://www.w3.org/2000/svg" width="200" height="150" viewBox="0 0 200 150">
  <rect width="200" height="150" fill="#e8eef7"/>
  <rect x="0" y="120" width="200" height="30" fill="#8fbc8f"/>
  <!-- Medium building -->
  <rect x="30" y="35" width="140" height="85" fill="#c4b59a" stroke="#333" stroke-width="2"/>
  <!-- Roof -->
  <polygon points="25,35 100,5 175,35" fill="#8b4513" stroke="#333" stroke-width="2"/>
  <!-- Three windows -->
  <rect x="40" y="50" width="26" height="20" fill="#87ceeb" stroke="#333" stroke-width="2"/>
  <line x1="53" y1="50" x2="53" y2="70" stroke="#333" stroke-width="1.5"/>
  <line x1="40" y1="60" x2="66" y2="60" stroke="#333" stroke-width="1.5"/>
  <rect x="87" y="50" width="26" height="20" fill="#87ceeb" stroke="#333" stroke-width="2"/>
  <line x1="100" y1="50" x2="100" y2="70" stroke="#333" stroke-width="1.5"/>
  <line x1="87" y1="60" x2="113" y2="60" stroke="#333" stroke-width="1.5"/>
  <rect x="134" y="50" width="26" height="20" fill="#87ceeb" stroke="#333" stroke-width="2"/>
  <line x1="147" y1="50" x2="147" y2="70" stroke="#333" stroke-width="1.5"/>
  <line x1="134" y1="60" x2="160" y2="60" stroke="#333" stroke-width="1.5"/>
  <!-- Door -->
  <rect x="88" y="95" width="24" height="25" fill="#6b4226" stroke="#333" stroke-width="2"/>
  <circle cx="107" cy="108" r="2" fill="#d4a017"/>
</svg>