<svg xmlns="http://www.w3.org/2000/svg" width="693" height="438" viewBox="0 0 693 438">
  <!-- Ceiling -->
  <rect width="693" height="438" fill="#d4c8a8"/>
  <!-- Back wall -->
  <rect x="0" y="0" width="693" height="260" fill="#c9b88c"/>
  <!-- Wall panel / wainscoting -->
  <rect x="0" y="180" width="693" height="80" fill="#b8a474"/>
  <line x1="0" y1="180" x2="693" y2="180" stroke="#a0905a" stroke-width="2"/>
  <line x1="0" y1="260" x2="693" y2="260" stroke="#a0905a" stroke-width="1"/>

  <!-- Floor - parquet pattern -->
  <rect x="0" y="260" width="693" height="178" fill="#a07040"/>
  <!-- Parquet rows -->
  <g fill="none" stroke="#8b5e34" stroke-width="0.8" opacity="0.5">
    <!-- Row 1 -->
    <line x1="0" y1="280" x2="693" y2="280"/>
    <line x1="0" y1="300" x2="693" y2="300"/>
    <line x1="0" y1="320" x2="693" y2="320"/>
    <line x1="0" y1="340" x2="693" y2="340"/>
    <line x1="0" y1="360" x2="693" y2="360"/>
    <line x1="0" y1="380" x2="693" y2="380"/>
    <line x1="0" y1="400" x2="693" y2="400"/>
    <line x1="0" y1="420" x2="693" y2="420"/>
    <!-- Vertical plank separators - staggered -->
    <line x1="60" y1="260" x2="60" y2="280"/>
    <line x1="120" y1="260" x2="120" y2="280"/>
    <line x1="180" y1="260" x2="180" y2="280"/>
    <line x1="240" y1="260" x2="240" y2="280"/>
    <line x1="300" y1="260" x2="300" y2="280"/>
    <line x1="360" y1="260" x2="360" y2="280"/>
    <line x1="420" y1="260" x2="420" y2="280"/>
    <line x1="480" y1="260" x2="480" y2="280"/>
    <line x1="540" y1="260" x2="540" y2="280"/>
    <line x1="600" y1="260" x2="600" y2="280"/>
    <line x1="660" y1="260" x2="660" y2="280"/>
    <!-- Staggered row -->
    <line x1="30" y1="280" x2="30" y2="300"/>
    <line x1="90" y1="280" x2="90" y2="300"/>
    <line x1="150" y1="280" x2="150" y2="300"/>
    <line x1="210" y1="280" x2="210" y2="300"/>
    <line x1="270" y1="280" x2="270" y2="300"/>
    <line x1="330" y1="280" x2="330" y2="300"/>
    <line x1="390" y1="280" x2="390" y2="300"/>
    <line x1="450" y1="280" x2="450" y2="300"/>
    <line x1="510" y1="280" x2="510" y2="300"/>
    <line x1="570" y1="280" x2="570" y2="300"/>
    <line x1="630" y1="280" x2="630" y2="300"/>
    <line x1="690" y1="280" x2="690" y2="300"/>
    <line x1="60" y1="300" x2="60" y2="320"/>
    <line x1="120" y1="300" x2="120" y2="320"/>
    <line x1="180" y1="300" x2="180" y2="320"/>
    <line x1="240" y1="300" x2="240" y2="320"/>
    <line x1="300" y1="300" x2="300" y2="320"/>
    <line x1="360" y1="300" x2="360" y2="320"/>
    <line x1="420" y1="300" x2="420" y2="320"/>
    <line x1="480" y1="300" x2="480" y2="320"/>
    <line x1="540" y1="300" x2="540" y2="320"/>
    <line x1="600" y1="300" x2="600" y2="320"/>
    <line x1="660" y1="300" x2="660" y2="320"/>
    <line x1="30" y1="320" x2="30" y2="340"/>
    <line x1="90" y1="320" x2="90" y2="340"/>
    <line x1="150" y1="320" x2="150" y2="340"/>
    <line x1="210" y1="320" x2="210" y2="340"/>
    <line x1="270" y1="320" x2="270" y2="340"/>
    <line x1="330" y1="320" x2="330" y2="340"/>
    <line x1="390" y1="320" x2="390" y2="340"/>
    <line x1="450" y1="320" x2="450" y2="340"/>
    <line x1="510" y1="320" x2="510" y2="340"/>
    <line x1="570" y1="320" x2="570" y2="340"/>
    <line x1="630" y1="320" x2="630" y2="340"/>
    <line x1="690" y1="320" x2="690" y2="340"/>
    <line x1="60" y1="340" x2="60" y2="360"/>
    <line x1="120" y1="340" x2="120" y2="360"/>
    <line x1="180" y1="340" x2="180" y2="360"/>
    <line x1="240" y1="340" x2="240" y2="360"/>
    <line x1="300" y1="340" x2="300" y2="360"/>
    <line x1="360" y1="340" x2="360" y2="360"/>
    <line x1="420" y1="340" x2="420" y2="360"/>
    <line x1="480" y1="340" x2="480" y2="360"/>
    <line x1="540" y1="340" x2="540" y2="360"/>
    <line x1="600" y1="340" x2="600" y2="360"/>
    <line x1="660" y1="340" x2="660" y2="360"/>
  </g>
  <!-- Floor shading / perspective gradient -->
  <rect x="0" y="260" width="693" height="178" fill="url(#floorGrad)" opacity="0.3"/>
  <defs>
    <linearGradient id="floorGrad" x1="0" y1="0" x2="0" y2="1">
      <stop offset="0%" stop-color="#000" stop-opacity="0.2"/>
      <stop offset="100%" stop-color="#000" stop-opacity="0"/>
    </linearGradient>
  </defs>

  <!-- Left wardrobe / cabinet -->
  <rect x="20" y="60" width="100" height="200" fill="#5c3a1e" stroke="#3a2010" stroke-width="2"/>
  <!-- Cabinet doors -->
  <rect x="25" y="65" width="43" height="90" fill="#6b4226" stroke="#3a2010" stroke-width="1.5"/>
  <rect x="72" y="65" width="43" height="90" fill="#6b4226" stroke="#3a2010" stroke-width="1.5"/>
  <!-- Door handles -->
  <circle cx="63" cy="110" r="3" fill="#d4a017" stroke="#b8860b" stroke-width="1"/>
  <circle cx="77" cy="110" r="3" fill="#d4a017" stroke="#b8860b" stroke-width="1"/>
  <!-- Lower doors -->
  <rect x="25" y="165" width="43" height="85" fill="#6b4226" stroke="#3a2010" stroke-width="1.5"/>
  <rect x="72" y="165" width="43" height="85" fill="#6b4226" stroke="#3a2010" stroke-width="1.5"/>
  <circle cx="63" cy="207" r="3" fill="#d4a017" stroke="#b8860b" stroke-width="1"/>
  <circle cx="77" cy="207" r="3" fill="#d4a017" stroke="#b8860b" stroke-width="1"/>
  <!-- Cabinet top -->
  <rect x="18" y="56" width="104" height="6" fill="#4a2a10" stroke="#3a2010" stroke-width="1"/>

  <!-- Second cabinet (bookshelf) -->
  <rect x="140" y="80" width="80" height="180" fill="#7a5230" stroke="#3a2010" stroke-width="2"/>
  <!-- Shelves -->
  <line x1="142" y1="120" x2="218" y2="120" stroke="#3a2010" stroke-width="2"/>
  <line x1="142" y1="160" x2="218" y2="160" stroke="#3a2010" stroke-width="2"/>
  <line x1="142" y1="200" x2="218" y2="200" stroke="#3a2010" stroke-width="2"/>
  <!-- Books on shelves -->
  <rect x="147" y="85" width="8" height="33" fill="#c0392b"/>
  <rect x="156" y="88" width="7" height="30" fill="#2980b9"/>
  <rect x="164" y="86" width="9" height="32" fill="#27ae60"/>
  <rect x="174" y="90" width="6" height="28" fill="#8e44ad"/>
  <rect x="181" y="87" width="8" height="31" fill="#d4a017"/>
  <rect x="147" y="125" width="10" height="33" fill="#e67e22"/>
  <rect x="158" y="128" width="7" height="30" fill="#1abc9c"/>
  <rect x="166" y="126" width="8" height="32" fill="#c0392b"/>
  <rect x="175" y="130" width="9" height="28" fill="#34495e"/>
  <rect x="147" y="165" width="7" height="33" fill="#9b59b6"/>
  <rect x="155" y="168" width="8" height="30" fill="#e74c3c"/>
  <rect x="164" y="166" width="10" height="32" fill="#2c3e50"/>
  <!-- Bookshelf top -->
  <rect x="138" y="76" width="84" height="6" fill="#5a3a18" stroke="#3a2010" stroke-width="1"/>

  <!-- Right side - display table with vase -->
  <rect x="520" y="190" width="120" height="8" fill="#6b4226" stroke="#3a2010" stroke-width="1.5"/>
  <rect x="535" y="198" width="10" height="62" fill="#5c3a1e" stroke="#3a2010" stroke-width="1"/>
  <rect x="615" y="198" width="10" height="62" fill="#5c3a1e" stroke="#3a2010" stroke-width="1"/>
  <!-- Vase on table -->
  <ellipse cx="580" cy="190" rx="14" ry="6" fill="#b05030" stroke="#802020" stroke-width="1.5"/>
  <rect x="570" y="155" width="20" height="35" rx="4" fill="#c06040" stroke="#802020" stroke-width="1.5"/>
  <ellipse cx="580" cy="155" rx="10" ry="4" fill="#b05030" stroke="#802020" stroke-width="1"/>
  <!-- Flowers -->
  <line x1="575" y1="155" x2="570" y2="125" stroke="#2d8b2d" stroke-width="2"/>
  <line x1="580" y1="155" x2="580" y2="118" stroke="#2d8b2d" stroke-width="2"/>
  <line x1="585" y1="155" x2="592" y2="128" stroke="#2d8b2d" stroke-width="2"/>
  <circle cx="570" cy="122" r="6" fill="#e74c3c" opacity="0.8"/>
  <circle cx="580" cy="115" r="7" fill="#f39c12" opacity="0.8"/>
  <circle cx="592" cy="125" r="6" fill="#e74c3c" opacity="0.8"/>

  <!-- Right wardrobe -->
  <rect x="560" y="60" width="110" height="125" fill="#5c3a1e" stroke="#3a2010" stroke-width="2"/>
  <rect x="565" y="65" width="48" height="115" fill="#6b4226" stroke="#3a2010" stroke-width="1.5"/>
  <rect x="617" y="65" width="48" height="115" fill="#6b4226" stroke="#3a2010" stroke-width="1.5"/>
  <circle cx="609" cy="120" r="3" fill="#d4a017" stroke="#b8860b" stroke-width="1"/>
  <circle cx="621" cy="120" r="3" fill="#d4a017" stroke="#b8860b" stroke-width="1"/>
  <rect x="558" y="56" width="114" height="6" fill="#4a2a10" stroke="#3a2010" stroke-width="1"/>

  <!-- Ceiling lamp -->
  <line x1="346" y1="0" x2="346" y2="30" stroke="#888" stroke-width="2"/>
  <polygon points="326,30 366,30 376,50 316,50" fill="#f5e6c8" stroke="#888" stroke-width="1.5"/>
  <ellipse cx="346" cy="50" rx="30" ry="4" fill="#e8d8b0" stroke="#888" stroke-width="1"/>
  <!-- Light glow -->
  <ellipse cx="346" cy="130" rx="120" ry="100" fill="#fff8e0" opacity="0.12"/>

  <!-- Wall picture frame left -->
  <rect x="255" y="80" width="60" height="45" fill="#e8d8a8" stroke="#5c3a1e" stroke-width="3"/>
  <rect x="260" y="85" width="50" height="35" fill="#87ceeb" stroke="none"/>
  <!-- Simple landscape in frame -->
  <rect x="260" y="105" width="50" height="15" fill="#6b8e23"/>
  <circle cx="295" cy="92" r="7" fill="#f0e060"/>

  <!-- Wall picture frame right -->
  <rect x="420" y="90" width="50" height="65" fill="#e8d8a8" stroke="#5c3a1e" stroke-width="3"/>
  <rect x="425" y="95" width="40" height="55" fill="#f5deb3" stroke="none"/>
  <!-- Abstract art in frame -->
  <circle cx="445" cy="115" r="12" fill="#c0392b" opacity="0.6"/>
  <circle cx="440" cy="125" r="10" fill="#2980b9" opacity="0.5"/>
  <rect x="430" y="130" width="20" height="10" fill="#27ae60" opacity="0.5"/>

  <!-- Small rug on floor -->
  <ellipse cx="350" cy="340" rx="100" ry="30" fill="#8b3a3a" opacity="0.5"/>
  <ellipse cx="350" cy="340" rx="85" ry="22" fill="#a04040" opacity="0.4"/>
  <ellipse cx="350" cy="340" rx="65" ry="14" fill="#b85050" opacity="0.3"/>
</svg>