<svg xmlns="http://www.w3.org/2000/svg" width="200" height="150" viewBox="0 0 200 150">
  <rect width="200" height="150" fill="#e8eef7"/>
  <rect x="0" y="125" width="200" height="25" fill="#d2b48c"/>
  <!-- Luxury kitchen island -->
  <!-- Back wall cabinets -->
  <rect x="5" y="15" width="190" height="25" rx="2" fill="#f5deb3" stroke="#333" stroke-width="1.5"/>
  <line x1="52" y1="15" x2="52" y2="40" stroke="#333" stroke-width="1"/>
  <line x1="100" y1="15" x2="100" y2="40" stroke="#333" stroke-width="1"/>
  <line x1="148" y1="15" x2="148" y2="40" stroke="#333" stroke-width="1"/>
  <!-- Handles -->
  <rect x="22" y="26" width="10" height="3" rx="1" fill="#d4a017"/>
  <rect x="70" y="26" width="10" height="3" rx="1" fill="#d4a017"/>
  <rect x="118" y="26" width="10" height="3" rx="1" fill="#d4a017"/>
  <rect x="168" y="26" width="10" height="3" rx="1" fill="#d4a017"/>
  <!-- Back counter -->
  <rect x="5" y="40" width="190" height="8" fill="#d2b48c" stroke="#333" stroke-width="1.5"/>
  <!-- Back appliances -->
  <rect x="10" y="48" width="40" height="50" rx="2" fill="#e0e0e0" stroke="#333" stroke-width="1.5"/>
  <circle cx="20" cy="53" r="3" fill="none" stroke="#555" stroke-width="1.5"/>
  <circle cx="38" cy="53" r="3" fill="none" stroke="#555" stroke-width="1.5"/>
  <!-- Fridge -->
  <rect x="155" y="25" width="40" height="73" rx="2" fill="#f0f0f0" stroke="#333" stroke-width="1.5"/>
  <line x1="155" y1="48" x2="195" y2="48" stroke="#333" stroke-width="1"/>
  <!-- Kitchen island - centerpiece -->
  <rect x="35" y="85" width="130" height="40" rx="4" fill="#f5deb3" stroke="#333" stroke-width="2"/>
  <rect x="35" y="82" width="130" height="8" rx="2" fill="#e8d5a8" stroke="#333" stroke-width="2"/>
  <!-- Island details -->
  <line x1="75" y1="90" x2="75" y2="125" stroke="#333" stroke-width="1"/>
  <line x1="125" y1="90" x2="125" y2="125" stroke="#333" stroke-width="1"/>
  <!-- Island handles -->
  <rect x="48" y="103" width="12" height="3" rx="1" fill="#d4a017"/>
  <rect x="93" y="103" width="12" height="3" rx="1" fill="#d4a017"/>
  <rect x="138" y="103" width="12" height="3" rx="1" fill="#d4a017"/>
  <!-- Pendant lights -->
  <line x1="70" y1="0" x2="70" y2="12" stroke="#333" stroke-width="1"/>
  <polygon points="62,12 78,12 74,20 66,20" fill="#ffd700" stroke="#333" stroke-width="1"/>
  <line x1="130" y1="0" x2="130" y2="12" stroke="#333" stroke-width="1"/>
  <polygon points="122,12 138,12 134,20 126,20" fill="#ffd700" stroke="#333" stroke-width="1"/>
</svg>