<svg xmlns="http://www.w3.org/2000/svg" width="200" height="150" viewBox="0 0 200 150">
  <rect width="200" height="150" fill="#e8eef7"/>
  <!-- Ground / sidewalk -->
  <rect x="0" y="120" width="200" height="30" fill="#b0b0b0"/>
  <!-- Building -->
  <rect x="20" y="30" width="160" height="90" fill="#dcc9a3" stroke="#333" stroke-width="2"/>
  <!-- Awning -->
  <rect x="15" y="25" width="170" height="12" rx="2" fill="#c0392b" stroke="#333" stroke-width="2"/>
  <line x1="35" y1="25" x2="30" y2="37" stroke="#a93226" stroke-width="1.5"/>
  <line x1="65" y1="25" x2="60" y2="37" stroke="#a93226" stroke-width="1.5"/>
  <line x1="95" y1="25" x2="90" y2="37" stroke="#a93226" stroke-width="1.5"/>
  <line x1="125" y1="25" x2="120" y2="37" stroke="#a93226" stroke-width="1.5"/>
  <line x1="155" y1="25" x2="150" y2="37" stroke="#a93226" stroke-width="1.5"/>
  <!-- Sign -->
  <rect x="50" y="8" width="100" height="18" rx="3" fill="#f5e6c8" stroke="#333" stroke-width="1.5"/>
  <text x="100" y="21" text-anchor="middle" font-family="sans-serif" font-size="10" font-weight="bold" fill="#333">МЕБЕЛЬ</text>
  <!-- Store window left -->
  <rect x="30" y="45" width="55" height="45" fill="#c8e6ff" stroke="#333" stroke-width="2"/>
  <line x1="57" y1="45" x2="57" y2="90" stroke="#333" stroke-width="1"/>
  <!-- Chair in left window -->
  <rect x="38" y="60" width="14" height="4" rx="1" fill="#b8956a" stroke="#333" stroke-width="1"/>
  <rect x="38" y="64" width="14" height="8" rx="1" fill="#c4a67a" stroke="#333" stroke-width="1"/>
  <rect x="39" y="72" width="3" height="10" fill="#8b7355" stroke="#333" stroke-width="0.8"/>
  <rect x="48" y="72" width="3" height="10" fill="#8b7355" stroke="#333" stroke-width="0.8"/>
  <!-- Table in left window -->
  <rect x="62" y="68" width="18" height="3" fill="#8b6914" stroke="#333" stroke-width="1"/>
  <rect x="64" y="71" width="3" height="11" fill="#6b4226" stroke="#333" stroke-width="0.8"/>
  <rect x="75" y="71" width="3" height="11" fill="#6b4226" stroke="#333" stroke-width="0.8"/>
  <!-- Store window right -->
  <rect x="115" y="45" width="55" height="45" fill="#c8e6ff" stroke="#333" stroke-width="2"/>
  <line x1="142" y1="45" x2="142" y2="90" stroke="#333" stroke-width="1"/>
  <!-- Sofa in right window -->
  <rect x="120" y="65" width="18" height="6" rx="2" fill="#5b8c5a" stroke="#333" stroke-width="1"/>
  <rect x="119" y="58" width="4" height="13" rx="1" fill="#4a7a49" stroke="#333" stroke-width="1"/>
  <rect x="135" y="58" width="4" height="13" rx="1" fill="#4a7a49" stroke="#333" stroke-width="1"/>
  <rect x="120" y="71" width="3" height="6" fill="#3a5a39" stroke="#333" stroke-width="0.8"/>
  <rect x="136" y="71" width="3" height="6" fill="#3a5a39" stroke="#333" stroke-width="0.8"/>
  <!-- Lamp in right window -->
  <rect x="150" y="50" width="2" height="26" fill="#888" stroke="#333" stroke-width="0.8"/>
  <polygon points="145,50 157,50 151,40" fill="#f0d060" stroke="#333" stroke-width="1"/>
  <!-- Door -->
  <rect x="89" y="70" width="22" height="50" fill="#6b4226" stroke="#333" stroke-width="2"/>
  <circle cx="106" cy="96" r="2" fill="#d4a017"/>
  <!-- Door window -->
  <rect x="93" y="75" width="14" height="14" rx="1" fill="#c8e6ff" stroke="#333" stroke-width="1"/>
  <!-- OPEN sign on door -->
  <rect x="92" y="93" width="16" height="7" rx="1" fill="#2ecc71"/>
  <text x="100" y="99" text-anchor="middle" font-family="sans-serif" font-size="5" fill="white">OPEN</text>
</svg>